<svg
  width="90"
  height="90"
  viewBox="0 0 89 90"
  fill="none"
  xmlns="http://www.w3.org/2000/svg"
>
  <rect
    x="24"
    width="42"
    height="10"
    fill="#fad7d1"
  />
  <rect
    x="15"
    y="9"
    width="10"
    height="10"
    fill="#fad7d1"
  />
  <rect
    x="71"
    y="63"
    width="10"
    height="10"
    fill="#fad7d1"
  />
  <rect
    width="10"
    height="10"
    transform="matrix(-1 0 0 1 18 65)"
    fill="#fad7d1"
  />
  <rect
    width="10"
    height="10"
    transform="matrix(-1 0 0 1 74 7)"
    fill="#fad7d1"
  />
  <rect
    x="7"
    y="17"
    width="10"
    height="10"
    fill="#fad7d1"
  />
  <rect
    x="63"
    y="71"
    width="10"
    height="10"
    fill="#fad7d1"
  />
  <rect
    width="10"
    height="10"
    transform="matrix(-1 0 0 1 26 73)"
    fill="#fad7d1"
  />
  <rect
    width="10"
    height="10"
    transform="matrix(-1 0 0 1 82 15)"
    fill="#fad7d1"
  />
  <rect
    x="10"
    y="25"
    width="42"
    height="10"
    transform="rotate(89.9271 10 25)"
    fill="#fad7d1"
  />
  <rect
    width="42"
    height="10"
    transform="matrix(-0.00127312 0.999999 0.999999 0.00127312 79 23)"
    fill="#fad7d1"
  />
  <rect
    x="24"
    y="80"
    width="42"
    height="10"
    fill="#fad7d1"
  />
</svg>